<svg id="Layer_1" data-name="Layer 1" xmlns="http://www.w3.org/2000/svg" viewBox="0 0 200.78 391.19"><defs><style>.cls-1{fill:#d33c37;}.cls-10,.cls-2{fill:#a1ddff;}.cls-12,.cls-2,.cls-8{stroke:#232323;}.cls-2{stroke-miterlimit:10;stroke-width:4px;}.cls-3{fill:#c73c43;}.cls-4{fill:#ff4457;}.cls-5{fill:#f59391;}.cls-6{fill:#004846;}.cls-7{fill:#043133;}.cls-8{fill:none;stroke-width:5px;}.cls-12,.cls-8{stroke-linecap:round;stroke-linejoin:round;}.cls-9{fill:#fff;}.cls-11{fill:#232323;}.cls-12{fill:#faa819;stroke-width:3px;}</style></defs><title>chicken_sad</title><path class="cls-1" d="M125.33,48.75s7.27,19.13,24.48,24.13,27.57,2.76,27.57,2.76l-9,3.86-7.43,3.32L157,88.1l-1.86,4.41-1.38,4,.67,3.12.07,2.94-.08,3.1-5.2-4.47-4.14-3.41.15-3,2.43-3.09-4.57.35s-2-1.19-2.18-1.85-4-5.82-4-5.82l-.29-4.45,6-7.14,2.2-.36-4.48-2.92L136,69.2l-3.67.44-7-20.89" transform="translate(-85.64 -14.83)"/><path class="cls-1" d="M163.31,155.18s11.77,28.69,19,28.8l-9.49,4.63L171,192.15l-2.31-10.49Z" transform="translate(-85.64 -14.83)"/><path class="cls-2" d="M152.93,139.92s-11.36-9.75-23.12-4.52-10,14.78-5.45,16.18,10.74-1.47,14.57-4.64S145.75,140,152.93,139.92Z" transform="translate(-85.64 -14.83)"/><path class="cls-2" d="M252.37,137s11.36-9.75,23.13-4.53,10,14.79,5.44,16.18-10.74-1.47-14.56-4.63S259.55,137,252.37,137Z" transform="translate(-85.64 -14.83)"/><path class="cls-3" d="M205.11,144.83a1.89,1.89,0,0,0-2.23.26,43.64,43.64,0,0,1-5.26,4.28c-3.09,2.06-3.46,8.31,0,7.65a9.2,9.2,0,0,0,4.64-3,1.89,1.89,0,0,1,2.89.12c1.17,1.55,3.08,3.11,5.49,1.65,4.12-2.5,2.13-5.67.73-6.77A61.6,61.6,0,0,0,205.11,144.83Z" transform="translate(-85.64 -14.83)"/><polyline class="cls-4" points="75.78 131.93 72.85 115.37 69.79 91.09 68.02 91.43 65.44 90.23 62.4 85.99 59.32 83.11 61.88 79.61 67.52 73.33 65.46 73.77 61.48 76.27 56.7 78.52 53.1 72.89 51.63 68.55 52.86 63.33 55.82 59.21 67.13 54.31 62.44 55.31 51.42 55.94 45.52 55.31 42.08 46.65 38.84 33.91 38.84 19.05 40.42 8.96 52.43 5.22 67.1 3.52 87.82 4.19 101.71 9.14 112.02 12.36 122.75 20.78 127.22 33.97 127.47 50.4 126.84 57.93 136.68 58.32 148.58 60.91 157.32 64.25 159.69 68.76 160.47 100.77 157.47 137.01 152.36 171.94 150.96 177.36 157.1 182.92 161.92 194.56 167.41 214.93 170.81 233.26 172.84 261.62 170.03 287.37 163.82 311.43 160.6 318.35 150.59 321.5 136.65 323.14 104.04 322.55 91.97 321.23 85.78 319.37 79.51 312.71 76.3 303.26 71.18 289.56 65.03 268.83 67.06 249.19 69.85 232.59 72.39 218.71 74.38 208.72 78.77 190.35 81.91 183.81 86.45 177.17 83.61 167.28 81.42 158.85"/><path class="cls-1" d="M217.77,185.26s-13.37,28.1-11.1,57.23,9.78,33.39,17.87,36.92,5.59,0,5.59,0l-3.24-4-8.38-3.53-1.18-3.39L216,257.34l1.63-3.59,4.75-2.77,2.67-4.15L220,240l-3.24-4.42-1.32-2.45-1.18-4.31.15-12.21,2.21-14Z" transform="translate(-85.64 -14.83)"/><path class="cls-1" d="M182.29,184s-25.56,39.38-22.48,125.22l-4.67-14.05L152,281.76l-1-6.54,5.07-29.79,4.34-23.73,5.13-20.55L172.27,191Z" transform="translate(-85.64 -14.83)"/><path class="cls-5" d="M191.05,180.68s-3.83,33.12,4.11,43.86,2.94,7.9,2.94,7.9l1.83-11.57-.64-18.32-4.13-21Z" transform="translate(-85.64 -14.83)"/><path class="cls-6" d="M252.94,314.09l-5.6,17.54-17,4.62-28.12,1.05-24-2.26-9.26-3.41-8.54-18.92s18.4-35.95,46.27-34.92S252.94,314.09,252.94,314.09Z" transform="translate(-85.64 -14.83)"/><polygon class="cls-6" points="72.95 215.76 68.28 206.16 58.69 190.61 53.49 187.72 47.38 195.68 32.04 217.41 18.82 238.99 8.38 260.38 2.89 279.55 2.89 288.26 4.35 292.06 10.85 296.84 16.06 300.13 23.45 303.89 30.83 306.2 34.02 306.55 35.78 306.5 37.55 297.82 38.58 290.91 40.78 283.7 41.37 286.5 40.64 293.7 39.91 300.91 39.55 305.76 41.46 308.34 44.17 309.02 49.35 308.91 52.47 308.6 55.11 302.54 56.23 295.91 57.99 287.67 59.78 281.52 61.6 287.63 64.15 297.83 66.59 302.84 68.44 304.74 70.5 305.44 74.76 304.74 76.79 302.98 74.76 296.64 71.82 287.38 69.5 280.32 67.7 273.84 66.38 266.93 66.23 261.19 66.67 252.96 67.85 240.16 72.95 215.76"/><path class="cls-7" d="M96.69,269s6.68,25.16,61.27,34.76l4.16,13.28-1.72,2.51-5.81.3-3.16-2.41-3.31-6.4-.88-8.6.11-5.3-1.47-2.24-2.25,7.58-1.76,8.23-2.49,9.77L137,323.57H126.28l-1.62-4-3.79.88-.67.94L103.66,317,93.4,310.74l-4.87-6-.1-9.54L90.89,284l3.17-9.46Z" transform="translate(-85.64 -14.83)"/><path class="cls-7" d="M161.73,313.24s31.54,23.59,83.07,19.08l-17.26,3.43H196.15l-20.45-1.62-7.14-3.07-4.63-9.14Z" transform="translate(-85.64 -14.83)"/><path class="cls-8" d="M180.34,74.86s-17.66,4-24.72,12.58c0,0-4.79,17.83,15.73,102.78" transform="translate(-85.64 -14.83)"/><path class="cls-8" d="M158.05,228.81s-12.21-24.28-17.8-27.66c0,0-58.77,72.52-51.49,104.74,0,0,19.42,16.55,32.66,15.44,0,0,2.43-17.1,5.08-25.37,0,0-2,21.29-1.22,25.43s14.35,1.82,14.35,1.82,4.74-25.26,6.5-28.91c0,0,2.32,27.26,10.71,25.93l6.12-1.12" transform="translate(-85.64 -14.83)"/><path class="cls-8" d="M179.41,335s5.45,18.95,12.07,26.9c0,0-10.15,14.56-11.36,24.49,0,0,3.53,11.8,10.37,17.1" transform="translate(-85.64 -14.83)"/><path class="cls-8" d="M199.53,393.05s-15.38-2.61-19.33-7.21" transform="translate(-85.64 -14.83)"/><path class="cls-8" d="M239.61,335s-5.45,18.95-12.07,26.9c0,0,10.15,14.56,11.36,24.49,0,0-3.53,11.8-10.37,17.1" transform="translate(-85.64 -14.83)"/><path class="cls-8" d="M219.48,393.05s15.39-2.61,19.34-7.21" transform="translate(-85.64 -14.83)"/><ellipse class="cls-9" cx="89.77" cy="107.03" rx="14.86" ry="18.09"/><ellipse class="cls-9" cx="142.65" cy="106.15" rx="14.86" ry="18.09"/><path class="cls-10" d="M163.31,134.26s4-5.15,9.45-.89,9.53,3.42,9.53,3.42a3.62,3.62,0,0,1-2.14,2.25,18.18,18.18,0,0,1-4.78.88l-6.21-1.47L164.08,135Z" transform="translate(-85.64 -14.83)"/><path class="cls-10" d="M241.64,127.93a15.33,15.33,0,0,0-6.66-.62c-3.86.44-4.41,5-7.87,6.25a60.43,60.43,0,0,1-6.43,2l2.79,1.66,1.81.4,2.24.33,2.39-.29,2.94-.81s3.53-1.25,3.68-1.25,2.65-3,2.65-3l1.91-2.65Z" transform="translate(-85.64 -14.83)"/><ellipse class="cls-8" cx="89.77" cy="107.03" rx="14.86" ry="18.09"/><ellipse class="cls-8" cx="142.65" cy="106.15" rx="14.86" ry="18.09"/><ellipse class="cls-11" cx="94.7" cy="104.82" rx="8.44" ry="11.58"/><ellipse class="cls-11" cx="137.45" cy="103.5" rx="8.44" ry="11.58"/><path class="cls-8" d="M184.53,87.59s-5.7,13.68-12.63,7.21" transform="translate(-85.64 -14.83)"/><path class="cls-8" d="M220.68,85.51s5.7,13.68,12.63,7.21" transform="translate(-85.64 -14.83)"/><path class="cls-12" d="M205.27,130a5,5,0,0,0-2.32-1.7c-1.33-.43-3.19-.39-4.92,1.91-3.14,4.18-4.43,5.24-6.24,6a4.05,4.05,0,0,0-1.71,5.48c.94,1.56,3.35,2.68,7.15,1a8,8,0,0,0,4.58-5.91,9.11,9.11,0,0,0,7.45,5.43,3.93,3.93,0,0,0,3-7,4.72,4.72,0,0,0-1.94-.9C208.5,133.87,206.26,131.25,205.27,130Z" transform="translate(-85.64 -14.83)"/><path class="cls-5" d="M124.93,30.4c2.12-19.29,76.42-20.89,75.76,42-.16,15.14,45.09,7.72,45.09,7.72l.49-1.91-6.89-4.7L225.49,70l-10.57-.67-2-.08L214,51.87l-1.27-13.24L200.69,26,181.56,20.1l-18-4.9s-30.47,2.46-30.89,2.55L126,19.36Z" transform="translate(-85.64 -14.83)"/><path class="cls-5" d="M236.5,192.7s.7,64.18,21.88,84.26h0l-.58-8.17-.38-11.8-5.59-31.55-2.49-9.4-3.08-10.36-9.76-13" transform="translate(-85.64 -14.83)"/><path class="cls-8" d="M237.38,190.22s13.34-69.9,7.83-110.06c0,0-11-9.27-33.32-8.39,0,0,9.49-34-13.9-44.57s-43.47-13-71.49-5.51c0,0-6.62,24.93,5.29,48.32a135.44,135.44,0,0,0,23.43-2.65s-25.41,7.5-16.37,20.08l4,5.3a31.55,31.55,0,0,0,8.61-4.64c4.85-3.53-6.34,8.08-6.34,8.08s6.63,8.2,10.79,10.43" transform="translate(-85.64 -14.83)"/><path class="cls-8" d="M183.09,281.62s1-9.71,2.76-12,5.52.22,8.72-3.86,3.31-12.58,2.32-13.46-8.28-3.75-10.49-6.51c0,0,12.69-10.19,13.28-18.28s.88-37.8-6.33-47.66c0,0-19.67,6.77-25.57,16s-15,67.44-16.79,79.36,14.12,51,17.95,56.41,63.4,9.42,78.4,0c0,0,10.59-25.89,11.33-56.19s-10.61-70.83-15.74-78.7-24-13.39-24-13.39-7.06,31.19-4,50.75c0,0,6.77,9.56,10.74,13.39a18.33,18.33,0,0,1-9.12,6.62s-3.39,11.47,1.91,17.8c0,0,14,4.56,13.09,15.3" transform="translate(-85.64 -14.83)"/></svg>