<?xml version="1.0" encoding="utf-8"?>
<!-- Generator: Adobe Illustrator 22.1.0, SVG Export Plug-In . SVG Version: 6.00 Build 0)  -->
<svg version="1.1" id="Layer_1_ayam" xmlns="http://www.w3.org/2000/svg" xmlns:xlink="http://www.w3.org/1999/xlink" x="0px" y="0px"
	 viewBox="0 0 381 417" style="enable-background:new 0 0 381 417;" xml:space="preserve">
<style type="text/css">
	.st0{fill:none;stroke:#232323;stroke-width:5;stroke-linecap:round;stroke-linejoin:round;stroke-miterlimit:10;}
	.st1{fill:#D1423C;stroke:#232323;stroke-width:5;stroke-linecap:round;stroke-linejoin:round;stroke-miterlimit:10;}
	.st2{clip-path:url(#SVGID_2_);fill:#3D5152;}
	.st3{clip-path:url(#SVGID_2_);fill:#033133;}
	.st4{fill:#F49290;}
	.st5{clip-path:url(#SVGID_4_);fill:#FF4457;}
	.st6{clip-path:url(#XMLID_6_);fill:#3D5152;}
	.st7{clip-path:url(#XMLID_6_);fill:#033133;}
	.st8{fill:none;stroke:#232323;stroke-width:17;stroke-linecap:round;stroke-linejoin:round;stroke-miterlimit:10;}
	.st9{fill:#FAA819;}
	.st10{fill:none;stroke:#FDC76E;stroke-width:8;stroke-miterlimit:10;}
	.st11{fill:none;stroke:#232323;stroke-width:5;stroke-linejoin:round;stroke-miterlimit:10;}
	.st12{clip-path:url(#SVGID_6_);fill:#EDCD48;}
	.st13{clip-path:url(#SVGID_6_);fill:#FFEEAE;}
	.st14{clip-path:url(#SVGID_6_);}
	.st15{fill:#232323;}
	.st16{clip-path:url(#SVGID_8_);fill:#EDCD48;}
	.st17{clip-path:url(#SVGID_8_);fill:#FFEEAE;}
	.st18{clip-path:url(#SVGID_8_);}
	.st19{clip-path:url(#SVGID_10_);fill:#EDCD48;}
	.st20{clip-path:url(#SVGID_10_);fill:#FFEEAE;}
	.st21{clip-path:url(#SVGID_10_);}
	.st22{fill:none;stroke:#232323;stroke-width:6;stroke-linecap:round;stroke-linejoin:round;stroke-miterlimit:10;}
	.st23{clip-path:url(#SVGID_12_);fill:#232323;}
</style>
<line class="st0" x1="223.9" y1="160.7" x2="223.9" y2="174.1"/>
<line class="st0" x1="205.6" y1="199.2" x2="205.6" y2="200"/>
<path class="st1" d="M69.7,230.9c0,0-25.3,9.3-16.1,19.3c7.4,8.1,13.3-4.2,13.3-4.2"/>
<g>
	<defs>
		<path id="SVGID_1_" d="M259,329.5c14.4-46.1,32.1-72.9,41.3-84.7c3.1-4,9.2-3.8,12.1,0.3c10.4,14.6,31.5,50.1,37.5,104.5
			c0.5,4.5-1.9,8.7-5.9,10.7c-4.1,2-10.6,5-20.8,9.3c0,0-1.9-17.6-2.9-23.3c-4.1-22.2-7.8-35.2-7.8-35.2s3.9,13.6,7.8,35.2
			c2.4,13.4,2.9,23.3,2.9,23.3s-9.3,2.7-12.1,3.5c-4.3,1.3-8.7-1.7-9.1-6.1c-0.8-9.1-3-27-8.6-41l-26.1,44.5"/>
	</defs>
	<use xlink:href="#SVGID_1_"  style="overflow:visible;fill:#034349;"/>
	<clipPath id="SVGID_2_">
		<use xlink:href="#SVGID_1_"  style="overflow:visible;"/>
	</clipPath>
	<path class="st2" d="M262.5,338.7c-0.7,0,35.7-86.3,43.7-87c13.4-1.2,15.2,13.3,15.2,13.3l-17-39.8l-25.5-3.5L255.7,251v65
		L262.5,338.7"/>
	<path class="st3" d="M330,280.1c0,0,14.4,68,9.4,82.4c-5,14.4,10.5-6.4,10.5-6.4l-3.8-62.5L330,280.1z"/>
</g>
<path class="st4" d="M115.8,165.4l-24.2,8.8c-4.1,1.5-7.3,4.8-8.6,8.9c-4.4,13.3-14.8,45.7-26,87.8c-9.2,34.5-15.5,61.5-19.6,80.3
	c-3.6,16.5,9,32,25.9,32H147l106.3-4.1c9.1-0.4,15.5-9,13.2-17.8c-2.4-9.4-6.2-22-11.7-36.4c-8.8-22.9-20.2-39.7-27-48.6
	c-3.4-4.5-9-6.9-14.6-6.3c-10.5,1.1-28.3,3.2-40.6,6.1c-21.8,5.2-43.1,13.8-43.1,13.8s9.4-23.9,15.7-48.1
	c5.5-21.5,9.9-43.6,11.5-52.3c0.4-2,2.4-3.2,4.3-2.7c1.2,0.3,2.6,0.6,4.3,0.9c2.5,0.3,4.4,0.6,5.8,0.7c2.3,0.2,4.5-0.7,6-2.3
	c1-1.1,2.3-2.7,3.6-4.9c2.4-4,3.5-7.8,4-10.1c0.4-1.7-0.3-3.4-1.6-4.4c-0.8-0.6-1.9-1.3-3.3-2.2c-1.9-1.2-3.6-2-4.9-2.5
	c-1.4-0.6-1.6-2.4-0.5-3.3c1.4-1.2,3.1-3,5.1-5.2c2.2-2.6,3.7-4.9,4.6-6.4c0.8-1.4,0.7-3.1-0.3-4.4c-1.4-1.8-3.7-4.2-7.3-5.8
	c-4.2-1.9-7.2-2.8-9.3-3.3c-2-0.5-4.1,0.3-5.3,2l-6.2,8.6c-0.6,0.8-1.9,0.3-1.8-0.7c0.8-6,2.2-18,2.6-29.4
	c0.5-13.2,0.7-24.1,0.8-30.6c0-3.7-3.2-6.5-6.9-5.9c-5.9,0.9-14.9,2.8-24.2,6.5c-11.7,4.6-18.6,9.7-22.2,13.1
	c-2.3,2.1-3.4,5.1-3.2,8.2c0.5,6.2,1.8,18,5.6,29.1c3.9,11.1,8.7,20.4,11.5,25.4C119.2,161.8,118.2,164.5,115.8,165.4z"/>
<g>
	<defs>
		<path id="SVGID_3_" d="M124.8,104.9c0.5,6.2,1.8,18,5.6,29.1c3.9,11.1,8.7,20.4,11.5,25.4c1.2,2.2,0.2,4.9-2.2,5.8l-24.2,8.8
			c-4.1,1.5-7.3,4.8-8.6,8.9c-4.4,13.3-14.8,45.7-26,87.8c-9.2,34.5-15.5,61.5-19.6,80.3c-3.6,16.5,9,32,25.9,32h60.1l106.3-4.1
			c9.1-0.4,15.5-9,13.2-17.8c-2.4-9.4-6.2-22-11.7-36.4c-8.8-22.9-20.2-39.7-27-48.6c-3.4-4.5-9-6.9-14.6-6.3
			c-10.5,1.1-28.3,3.2-40.6,6.1c-21.8,5.2-43.1,13.8-43.1,13.8s9.4-23.9,15.7-48.1c5.5-21.5,9.9-43.6,11.5-52.3
			c0.4-2,2.4-3.2,4.3-2.7c1.2,0.3,2.6,0.6,4.3,0.9c2.5,0.3,4.4,0.6,5.8,0.7c2.3,0.2,4.5-0.7,6-2.3c1-1.1,2.3-2.7,3.6-4.9
			c2.4-4,3.5-7.8,4-10.1c0.4-1.7-0.3-3.4-1.6-4.4c-0.8-0.6-1.9-1.3-3.3-2.2c-1.9-1.2-3.6-2-4.9-2.5c-1.4-0.6-1.6-2.4-0.5-3.3
			c1.4-1.2,3.1-3,5.1-5.2c2.2-2.6,3.7-4.9,4.6-6.4c0.8-1.4,0.7-3.1-0.3-4.4c-1.4-1.8-3.7-4.2-7.3-5.8c-4.2-1.9-7.2-2.8-9.3-3.3
			c-2-0.5-4.1,0.3-5.3,2l-6.2,8.6c-0.6,0.8-1.9,0.3-1.8-0.7c0.8-6,2.2-18,2.6-29.4c0.5-13.2,0.7-24.1,0.8-30.6
			c0-3.7-3.2-6.5-6.9-5.9c-5.9,0.9-6.7,2.8-16,6.5c0,0-4.4,2.1-7.8,9.3C124.2,98.8,124.8,104.9,124.8,104.9z"/>
	</defs>
	<use xlink:href="#SVGID_3_"  style="overflow:visible;fill:#FF4457;"/>
	<clipPath id="SVGID_4_">
		<use xlink:href="#SVGID_3_"  style="overflow:visible;"/>
	</clipPath>
	<path class="st5" d="M121,335.3c0,0,8,20.2,18,23.5s22.6,5.7,40.9,3.8c18.3-2,21.9-14.1,21.9-14.1l4.3-8.7l3.2-4.6
		c0,0,0.7,3.8-1.5,8.4c0,0,6.5,4.8,5.3,9.3c-1.2,4.5,2.1,20.4-40.7,22.5s-42.9-13.2-42.9-13.2L121,335.3"/>
</g>
<g>
	<defs>
		<path id="XMLID_2_" d="M259,329.5c0,0-9.3,46.8-125.9,47.1C31.1,376.8,62.2,265,62.2,265l-23.4,90.8l4.6,14.6l8.3,7.8l10.9,3.7
			h30.5l77.5-0.8l72.8-2.8l18.5-2.5c0,0,5.6-4.8,6.2-7.8s0-15.2,0-15.2L259,329.5"/>
	</defs>
	<use xlink:href="#XMLID_2_"  style="overflow:visible;fill:#034349;"/>
	<clipPath id="XMLID_6_">
		<use xlink:href="#XMLID_2_"  style="overflow:visible;"/>
	</clipPath>
	<path class="st6" d="M60.3,325.3l-2.7,11.3C51.9,359.7,69.4,382,93.2,382h0l-62.6,8.6l26.9-122.2l17.6,12.5L60.3,325.3"/>
	<polygon class="st7" points="254.8,339.6 265.9,374.7 231.7,376.6 235.5,383.4 277.3,384.3 278.4,364.5 259,326.5 249.9,332.5 	"/>
</g>
<path class="st8" d="M141.1,293.6c0,0,36.8-21.1,76.6-15.2"/>
<polyline class="st9" points="75.5,204.1 59,207.6 57.3,215 62.8,221.2 70.3,225.2 74.6,207 75.5,204.1 "/>
<line class="st10" x1="67.5" y1="225.3" x2="74.5" y2="203.1"/>
<path class="st11" d="M77.8,204.4c0,0-13.9-2-20.4,5.5c0,0-2.2,8.8,11.8,15.3"/>
<path class="st11" d="M259,329.5c14.4-46.1,32.1-72.9,41.3-84.7c3.1-4,9.2-3.8,12.1,0.3c10.4,14.6,31.5,50.1,37.5,104.5
	c0.5,4.5-1.9,8.7-5.9,10.7c-4.1,2-10.6,5-20.8,9.3c0,0-1.9-17.6-2.9-23.3c-4.1-22.2-7.8-35.2-7.8-35.2s3.9,13.6,7.8,35.2
	c2.4,13.4,2.9,23.3,2.9,23.3s-9.3,2.7-12.1,3.5c-4.3,1.3-8.7-1.7-9.1-6.1c-0.8-9.1-3-27-8.6-41l-26.1,44.5"/>
<path class="st11" d="M117.8,164.1l-24.2,8.8c-4.1,1.5-7.3,4.8-8.6,8.9c-4.4,13.3-14.8,45.7-26,87.8c-9.2,34.5-15.5,61.5-19.6,80.3
	c-3.6,16.5,9,32,25.9,32H149l106.3-4.1c9.1-0.4,15.5-9,13.2-17.8c-2.4-9.4-6.2-22-11.7-36.4c-8.8-22.9-20.2-39.7-27-48.6
	c-3.4-4.5-9-6.9-14.6-6.3c-10.5,1.1-28.3,3.2-40.6,6.1c-21.8,5.2-43.1,13.8-43.1,13.8s9.4-23.9,15.7-48.1
	c5.5-21.5,9.9-43.6,11.5-52.3c0.4-2,2.4-3.2,4.3-2.7c1.2,0.3,2.6,0.6,4.3,0.9c2.5,0.3,4.4,0.6,5.8,0.7c2.3,0.2,4.5-0.7,6-2.3
	c1-1.1,2.3-2.7,3.6-4.9c2.4-4,3.5-7.8,4-10.1c0.4-1.7-0.3-3.4-1.6-4.4c-0.8-0.6-1.9-1.3-3.3-2.2c-1.9-1.2-3.6-2-4.9-2.5
	c-1.4-0.6-1.6-2.4-0.5-3.3c1.4-1.2,3.1-3,5.1-5.2c2.2-2.6,3.7-4.9,4.6-6.4c0.8-1.4,0.7-3.1-0.3-4.4c-1.4-1.8-3.7-4.2-7.3-5.8
	c-4.2-1.9-7.2-2.8-9.3-3.3c-2-0.5-4.1,0.3-5.3,2l-6.2,8.6c-0.6,0.8-1.9,0.3-1.8-0.7c0.8-6,2.2-18,2.6-29.4
	c0.5-13.2,0.7-24.1,0.8-30.6c0-3.7-3.2-6.5-6.9-5.9c-5.9,0.9-14.9,2.8-24.2,6.5c-11.7,4.6-18.6,9.7-22.2,13.1
	c-2.3,2.1-3.4,5.1-3.2,8.2c0.5,6.2,1.8,18,5.6,29.1c3.9,11.1,8.7,20.4,11.5,25.4C121.2,160.4,120.2,163.2,117.8,164.1z"/>
<path class="st0" d="M114.7,333.6l8.8,23.5c1.7,4.5,5.4,7.9,10,9.1c11.1,3,33.6,6.7,62.4-1.7c2.5-0.7,5.7-3,7.1-5.2
	c4.6-7.3-1.8-14.4-11-14.4c0,0,8.7-5.8,8.7-11.7c0-5.5-3.9-8.1-13.3-8.1"/>
<g>
	<defs>
		<circle id="SVGID_5_" cx="207.2" cy="220.1" r="25.8"/>
	</defs>
	<use xlink:href="#SVGID_5_"  style="overflow:visible;fill:#F6E06F;"/>
	<clipPath id="SVGID_6_">
		<use xlink:href="#SVGID_5_"  style="overflow:visible;"/>
	</clipPath>
	<path class="st12" d="M228.8,205.9c0,0-3.9,32-28,34.9c-24.1,2.9,3.2,4.8,3.2,4.8l9.4,0.2l15.4-4.8l5-12.1l-1.5-19.4L228.8,205.9z"
		/>
	<path class="st13" d="M207.2,194.2c0,0-23.8,13.6-21.5,40.1C188,260.8,177,207,177,207l19.6-23.4l7.3,0.7L207.2,194.2z"/>
	<g class="st14">
		<g>
			<path class="st15" d="M201.1,226.7l-0.6,0.2l-0.9,0.2l1,3.6c0.2,0.6-0.2,1.3-0.8,1.5l-2.5,0.7c-0.6,0.2-1.3-0.2-1.5-0.8l-5-17.8
				c-0.2-0.6,0.2-1.3,0.8-1.5l4.8-1.3c4.4-1.2,8,0.6,9.4,5.5l0.1,0.5c0.7,2.4,0.4,4.4-0.6,5.9c-0.3,0.4-0.2,1,0.1,1.4l2.8,3.3
				c0.6,0.7,0.3,1.7-0.6,1.9l-2.4,0.7c-0.5,0.1-0.9,0-1.2-0.4L201.1,226.7z M198.6,223.1l0.9-0.3c1.7-0.5,2.4-2,1.8-4.1l-0.1-0.4
				c-0.6-2.2-2-3.1-3.7-2.6l-0.9,0.3L198.6,223.1z"/>
			<path class="st15" d="M206,210c-0.2-0.6,0.2-1.3,0.8-1.5l4.8-1.3c4.3-1.2,8,0.5,9.4,5.5l0.1,0.5c1.4,5-0.8,8.3-5.2,9.6l0,0
				c-0.6,0.2-1,0.8-0.8,1.5l0.6,2.3c0.2,0.6-0.2,1.3-0.8,1.5l-2.5,0.7c-0.6,0.2-1.3-0.2-1.5-0.8L206,210z M213.7,219l0.9-0.3
				c1.7-0.5,2.4-2.1,1.8-4.2l-0.1-0.4c-0.6-2.1-2-3.1-3.7-2.6l-0.9,0.3L213.7,219z"/>
		</g>
	</g>
	
		<use xlink:href="#SVGID_5_"  style="overflow:visible;fill:none;stroke:#232323;stroke-width:5;stroke-linejoin:round;stroke-miterlimit:10;"/>
</g>
<g>
	<defs>
		<circle id="SVGID_7_" cx="238.7" cy="161.7" r="25.8"/>
	</defs>
	<use xlink:href="#SVGID_7_"  style="overflow:visible;fill:#F6E06F;"/>
	<clipPath id="SVGID_8_">
		<use xlink:href="#SVGID_7_"  style="overflow:visible;"/>
	</clipPath>
	<path class="st16" d="M260.2,147.5c0,0-3.9,32-28,34.9c-24.1,2.9,3.2,4.8,3.2,4.8l9.4,0.2l15.4-4.8l5-12.1l-1.5-19.4L260.2,147.5z"
		/>
	<path class="st17" d="M238.7,135.8c0,0-23.8,13.6-21.5,40.1c2.3,26.5-8.7-27.3-8.7-27.3l19.6-23.4l7.3,0.7L238.7,135.8z"/>
	<g class="st18">
		<g>
			<path class="st15" d="M229.2,161.7l-0.5-0.3l-0.8-0.4l-1.8,3.3c-0.3,0.6-1,0.8-1.6,0.5l-2.3-1.2c-0.6-0.3-0.8-1-0.5-1.6l8.9-16.2
				c0.3-0.6,1-0.8,1.6-0.5l4.4,2.4c4,2.2,5.3,6,2.9,10.5l-0.3,0.5c-1.2,2.1-2.8,3.4-4.6,3.9c-0.5,0.1-0.9,0.6-0.9,1.1l-0.3,4.3
				c-0.1,0.9-1,1.4-1.8,1l-2.2-1.2c-0.4-0.2-0.7-0.7-0.6-1.1L229.2,161.7z M229.9,157.3l0.9,0.5c1.5,0.8,3.1,0.2,4.2-1.7l0.2-0.4
				c1.1-2,0.7-3.6-0.8-4.4l-0.9-0.5L229.9,157.3z"/>
			<path class="st15" d="M244.3,153.1c0.3-0.6,1-0.8,1.6-0.5l4.4,2.4c3.9,2.2,5.4,6,2.9,10.5l-0.3,0.5c-2.5,4.5-6.4,5.4-10.4,3.2
				l0,0c-0.6-0.3-1.3-0.1-1.6,0.5l-1.1,2.1c-0.3,0.6-1,0.8-1.6,0.5l-2.3-1.2c-0.6-0.3-0.8-1-0.5-1.6L244.3,153.1z M243.5,164.9
				l0.9,0.5c1.5,0.8,3.1,0.2,4.2-1.8l0.2-0.4c1-1.9,0.7-3.6-0.8-4.4l-0.9-0.5L243.5,164.9z"/>
		</g>
	</g>
	
		<use xlink:href="#SVGID_7_"  style="overflow:visible;fill:none;stroke:#232323;stroke-width:5;stroke-linejoin:round;stroke-miterlimit:10;"/>
</g>
<g>
	<defs>
		<circle id="SVGID_9_" cx="212.8" cy="104.7" r="25.8"/>
	</defs>
	<use xlink:href="#SVGID_9_"  style="overflow:visible;fill:#F6E06F;"/>
	<clipPath id="SVGID_10_">
		<use xlink:href="#SVGID_9_"  style="overflow:visible;"/>
	</clipPath>
	<path class="st19" d="M234.4,90.5c0,0-3.9,32-28,34.9s3.2,4.8,3.2,4.8l9.4,0.2l15.4-4.8l5-12.1L238,94.2L234.4,90.5z"/>
	<path class="st20" d="M212.8,78.9c0,0-23.8,13.6-21.5,40.1c2.3,26.5-8.7-27.3-8.7-27.3l19.6-23.4l7.3,0.7L212.8,78.9z"/>
	<g class="st21">
		<g>
			<path class="st15" d="M223.1,103.5l0.5,0.3l0.8,0.5l2-3.2c0.4-0.6,1.1-0.7,1.7-0.4l2.2,1.4c0.6,0.4,0.7,1.1,0.4,1.7l-9.8,15.7
				c-0.4,0.6-1.1,0.7-1.7,0.4l-4.2-2.6c-3.9-2.4-5-6.3-2.3-10.6l0.3-0.5c1.3-2.1,3-3.2,4.8-3.6c0.5-0.1,0.9-0.5,1-1l0.5-4.3
				c0.1-0.9,1.1-1.3,1.8-0.9l2.1,1.3c0.4,0.2,0.6,0.7,0.6,1.2L223.1,103.5z M222.1,107.8l-0.8-0.5c-1.5-0.9-3.1-0.4-4.3,1.5
				l-0.2,0.4c-1.2,2-0.9,3.5,0.5,4.5l0.8,0.5L222.1,107.8z"/>
			<path class="st15" d="M207.5,111.2c-0.4,0.6-1.1,0.7-1.7,0.4l-4.2-2.6c-3.8-2.4-5-6.3-2.3-10.6l0.3-0.5c2.7-4.4,6.7-5,10.6-2.6
				l0,0c0.6,0.4,1.3,0.2,1.7-0.4l1.3-2c0.4-0.6,1.1-0.7,1.7-0.4l2.2,1.4c0.6,0.4,0.7,1.1,0.4,1.7L207.5,111.2z M208.9,99.5l-0.8-0.5
				c-1.5-0.9-3.1-0.3-4.3,1.5l-0.2,0.4c-1.1,1.8-0.9,3.6,0.5,4.5l0.8,0.5L208.9,99.5z"/>
		</g>
	</g>
	
		<use xlink:href="#SVGID_9_"  style="overflow:visible;fill:none;stroke:#232323;stroke-width:5;stroke-linejoin:round;stroke-miterlimit:10;"/>
</g>
<line class="st0" x1="221.2" y1="39.1" x2="221.2" y2="77.6"/>
<line class="st0" x1="201.7" y1="64.2" x2="201.7" y2="80"/>
<line class="st0" x1="197.5" y1="170.1" x2="197.5" y2="194.2"/>
<line class="st0" x1="197.5" y1="155.6" x2="197.5" y2="161.2"/>
<line class="st22" x1="212.8" y1="188.6" x2="212.8" y2="194.2"/>
<line class="st0" x1="247.9" y1="110.9" x2="247.9" y2="135"/>
<line class="st0" x1="247.9" y1="96.2" x2="247.9" y2="101.8"/>
<g>
	<defs>
		<ellipse id="SVGID_11_" cx="112" cy="207" rx="21" ry="24.5"/>
	</defs>
	<use xlink:href="#SVGID_11_"  style="overflow:visible;fill:#FFFFFF;"/>
	<clipPath id="SVGID_12_">
		<use xlink:href="#SVGID_11_"  style="overflow:visible;"/>
	</clipPath>
	<ellipse class="st23" cx="101.9" cy="207.6" rx="8.8" ry="12"/>
	
		<use xlink:href="#SVGID_11_"  style="overflow:visible;fill:none;stroke:#232323;stroke-width:5;stroke-linejoin:round;stroke-miterlimit:10;"/>
</g>
</svg>
